<mxfile host="app.diagrams.net" modified="2024-05-07T14:49:29.642Z" agent="Mozilla/5.0 (Windows NT 10.0; Win64; x64) AppleWebKit/537.36 (KHTML, like Gecko) Chrome/124.0.0.0 Safari/537.36" etag="smEgeUV0YaFOYDwA1_uV" version="24.3.1" type="device">
  <diagram name="PÃ¡gina-1" id="XW3-ly7yL-Yb_Bm5mTgu">
    <mxGraphModel dx="1500" dy="833" grid="1" gridSize="10" guides="1" tooltips="1" connect="1" arrows="1" fold="1" page="1" pageScale="1" pageWidth="2000" pageHeight="2000" math="0" shadow="0">
      <root>
        <mxCell id="0" />
        <mxCell id="1" parent="0" />
        <mxCell id="9uUlbv62UU2ebzoV62fP-51" style="edgeStyle=orthogonalEdgeStyle;rounded=0;orthogonalLoop=1;jettySize=auto;html=1;entryX=0;entryY=0.5;entryDx=0;entryDy=0;" edge="1" parent="1" source="9uUlbv62UU2ebzoV62fP-53" target="9uUlbv62UU2ebzoV62fP-54">
          <mxGeometry relative="1" as="geometry" />
        </mxCell>
        <mxCell id="9uUlbv62UU2ebzoV62fP-53" value="INICIO" style="ellipse;whiteSpace=wrap;html=1;" vertex="1" parent="1">
          <mxGeometry x="160" y="870" width="120" height="80" as="geometry" />
        </mxCell>
        <mxCell id="9uUlbv62UU2ebzoV62fP-67" style="edgeStyle=orthogonalEdgeStyle;rounded=0;orthogonalLoop=1;jettySize=auto;html=1;entryX=0;entryY=0.5;entryDx=0;entryDy=0;" edge="1" parent="1" source="9uUlbv62UU2ebzoV62fP-54" target="9uUlbv62UU2ebzoV62fP-57">
          <mxGeometry relative="1" as="geometry" />
        </mxCell>
        <mxCell id="9uUlbv62UU2ebzoV62fP-54" value="ACTIVIDAD A:&lt;div&gt;Santiago 8HS&lt;br&gt;&lt;div&gt;&lt;div&gt;&lt;br&gt;&lt;/div&gt;&lt;/div&gt;&lt;/div&gt;" style="rounded=0;whiteSpace=wrap;html=1;" vertex="1" parent="1">
          <mxGeometry x="410" y="880" width="120" height="60" as="geometry" />
        </mxCell>
        <mxCell id="9uUlbv62UU2ebzoV62fP-73" style="edgeStyle=orthogonalEdgeStyle;rounded=0;orthogonalLoop=1;jettySize=auto;html=1;entryX=0;entryY=0.5;entryDx=0;entryDy=0;" edge="1" parent="1" source="9uUlbv62UU2ebzoV62fP-57" target="9uUlbv62UU2ebzoV62fP-70">
          <mxGeometry relative="1" as="geometry" />
        </mxCell>
        <mxCell id="9uUlbv62UU2ebzoV62fP-57" value="ACITIVIDAD B:&lt;div&gt;Santiago 8hs&lt;/div&gt;" style="rounded=0;whiteSpace=wrap;html=1;" vertex="1" parent="1">
          <mxGeometry x="600" y="880" width="120" height="60" as="geometry" />
        </mxCell>
        <mxCell id="9uUlbv62UU2ebzoV62fP-62" value="" style="shape=table;startSize=0;container=1;collapsible=0;childLayout=tableLayout;" vertex="1" parent="1">
          <mxGeometry x="410" y="1160" width="510" height="80" as="geometry" />
        </mxCell>
        <mxCell id="9uUlbv62UU2ebzoV62fP-63" value="" style="shape=tableRow;horizontal=0;startSize=0;swimlaneHead=0;swimlaneBody=0;strokeColor=inherit;top=0;left=0;bottom=0;right=0;collapsible=0;dropTarget=0;fillColor=none;points=[[0,0.5],[1,0.5]];portConstraint=eastwest;" vertex="1" parent="9uUlbv62UU2ebzoV62fP-62">
          <mxGeometry width="510" height="80" as="geometry" />
        </mxCell>
        <mxCell id="9uUlbv62UU2ebzoV62fP-64" value="DIA1:&lt;div&gt;Santiago:8hs&lt;span style=&quot;white-space: pre;&quot;&gt;&#x9;&lt;/span&gt;&lt;/div&gt;" style="shape=partialRectangle;html=1;whiteSpace=wrap;connectable=0;strokeColor=inherit;overflow=hidden;fillColor=none;top=0;left=0;bottom=0;right=0;pointerEvents=1;" vertex="1" parent="9uUlbv62UU2ebzoV62fP-63">
          <mxGeometry width="170" height="80" as="geometry">
            <mxRectangle width="170" height="80" as="alternateBounds" />
          </mxGeometry>
        </mxCell>
        <mxCell id="9uUlbv62UU2ebzoV62fP-65" value="DIA 2:&lt;div&gt;Santiago 8hs&lt;/div&gt;&lt;div&gt;Pablo: 8hs&lt;/div&gt;" style="shape=partialRectangle;html=1;whiteSpace=wrap;connectable=0;strokeColor=inherit;overflow=hidden;fillColor=none;top=0;left=0;bottom=0;right=0;pointerEvents=1;" vertex="1" parent="9uUlbv62UU2ebzoV62fP-63">
          <mxGeometry x="170" width="170" height="80" as="geometry">
            <mxRectangle width="170" height="80" as="alternateBounds" />
          </mxGeometry>
        </mxCell>
        <mxCell id="9uUlbv62UU2ebzoV62fP-66" value="DIA 3:&lt;div&gt;Santiago 8hs&lt;/div&gt;&lt;div&gt;Pablo 8hs&lt;/div&gt;" style="shape=partialRectangle;html=1;whiteSpace=wrap;connectable=0;strokeColor=inherit;overflow=hidden;fillColor=none;top=0;left=0;bottom=0;right=0;pointerEvents=1;" vertex="1" parent="9uUlbv62UU2ebzoV62fP-63">
          <mxGeometry x="340" width="170" height="80" as="geometry">
            <mxRectangle width="170" height="80" as="alternateBounds" />
          </mxGeometry>
        </mxCell>
        <mxCell id="9uUlbv62UU2ebzoV62fP-72" style="edgeStyle=orthogonalEdgeStyle;rounded=0;orthogonalLoop=1;jettySize=auto;html=1;entryX=0;entryY=0.5;entryDx=0;entryDy=0;" edge="1" parent="1" source="9uUlbv62UU2ebzoV62fP-68" target="9uUlbv62UU2ebzoV62fP-71">
          <mxGeometry relative="1" as="geometry" />
        </mxCell>
        <mxCell id="9uUlbv62UU2ebzoV62fP-68" value="ACITIVIDAD B:&lt;div&gt;Pablo 8hs&lt;/div&gt;" style="rounded=0;whiteSpace=wrap;html=1;" vertex="1" parent="1">
          <mxGeometry x="600" y="990" width="120" height="60" as="geometry" />
        </mxCell>
        <mxCell id="9uUlbv62UU2ebzoV62fP-69" style="edgeStyle=orthogonalEdgeStyle;rounded=0;orthogonalLoop=1;jettySize=auto;html=1;entryX=0.003;entryY=0.617;entryDx=0;entryDy=0;entryPerimeter=0;" edge="1" parent="1" source="9uUlbv62UU2ebzoV62fP-54" target="9uUlbv62UU2ebzoV62fP-68">
          <mxGeometry relative="1" as="geometry" />
        </mxCell>
        <mxCell id="9uUlbv62UU2ebzoV62fP-75" style="edgeStyle=orthogonalEdgeStyle;rounded=0;orthogonalLoop=1;jettySize=auto;html=1;entryX=0.5;entryY=0;entryDx=0;entryDy=0;" edge="1" parent="1" source="9uUlbv62UU2ebzoV62fP-70" target="9uUlbv62UU2ebzoV62fP-74">
          <mxGeometry relative="1" as="geometry">
            <Array as="points">
              <mxPoint x="1100" y="910" />
            </Array>
          </mxGeometry>
        </mxCell>
        <mxCell id="9uUlbv62UU2ebzoV62fP-70" value="ACTIVIDAD C:&lt;div&gt;Santiago 8hs&lt;/div&gt;" style="rounded=0;whiteSpace=wrap;html=1;" vertex="1" parent="1">
          <mxGeometry x="820" y="880" width="120" height="60" as="geometry" />
        </mxCell>
        <mxCell id="9uUlbv62UU2ebzoV62fP-76" style="edgeStyle=orthogonalEdgeStyle;rounded=0;orthogonalLoop=1;jettySize=auto;html=1;entryX=0.5;entryY=1;entryDx=0;entryDy=0;" edge="1" parent="1" source="9uUlbv62UU2ebzoV62fP-71" target="9uUlbv62UU2ebzoV62fP-74">
          <mxGeometry relative="1" as="geometry" />
        </mxCell>
        <mxCell id="9uUlbv62UU2ebzoV62fP-71" value="ACTIVIDAD C:&lt;div&gt;Pablo 8hs&lt;/div&gt;" style="rounded=0;whiteSpace=wrap;html=1;" vertex="1" parent="1">
          <mxGeometry x="820" y="990" width="120" height="60" as="geometry" />
        </mxCell>
        <mxCell id="9uUlbv62UU2ebzoV62fP-74" value="FIN" style="ellipse;whiteSpace=wrap;html=1;" vertex="1" parent="1">
          <mxGeometry x="1040" y="920" width="120" height="80" as="geometry" />
        </mxCell>
        <mxCell id="9uUlbv62UU2ebzoV62fP-78" value="1 Recurso" style="ellipse;shape=cloud;whiteSpace=wrap;html=1;" vertex="1" parent="1">
          <mxGeometry x="410" y="770" width="120" height="80" as="geometry" />
        </mxCell>
        <mxCell id="9uUlbv62UU2ebzoV62fP-79" value="2 Recursos" style="ellipse;shape=cloud;whiteSpace=wrap;html=1;" vertex="1" parent="1">
          <mxGeometry x="600" y="770" width="120" height="80" as="geometry" />
        </mxCell>
        <mxCell id="9uUlbv62UU2ebzoV62fP-80" value="2 Recursos" style="ellipse;shape=cloud;whiteSpace=wrap;html=1;" vertex="1" parent="1">
          <mxGeometry x="820" y="770" width="120" height="80" as="geometry" />
        </mxCell>
        <mxCell id="9uUlbv62UU2ebzoV62fP-81" value="1 RECURSO = PERSONA QUE TRABAJA 8 HORAS" style="rounded=0;whiteSpace=wrap;html=1;fontSize=16;" vertex="1" parent="1">
          <mxGeometry x="1060" y="760" width="450" height="90" as="geometry" />
        </mxCell>
      </root>
    </mxGraphModel>
  </diagram>
</mxfile>
